<svg xmlns="http://www.w3.org/2000/svg" viewBox="0 0 281.46 252.38"><defs><style>.cls-1{fill:#2b3378;}.cls-2{fill:#2b3c92;}.cls-3{fill:#3d4a9f;}.cls-4{fill:#23b6a0;}.cls-5{fill:#1c9b8f;}.cls-6{fill:#63c18e;}.cls-7{fill:#91ce9f;}.cls-8{fill:#52bc82;}.cls-9{fill:#ffcd74;}.cls-10{fill:#ea5aa1;}.cls-11{fill:#fef492;}.cls-12{fill:#5a67af;}.cls-13{fill:#66b1cf;}.cls-14{fill:#a8d2e2;}.cls-15{fill:#c0dfeb;}.cls-16{fill:#c2e5db;}.cls-17{fill:#7ac8a5;}.cls-18{fill:#98d3b8;}.cls-19{fill:#e4f0fa;}.cls-20{fill:#e2cb3e;}.cls-20,.cls-28,.cls-32{stroke:#4d1127;}.cls-20,.cls-22,.cls-23,.cls-28,.cls-29,.cls-30,.cls-32,.cls-33,.cls-34{stroke-linecap:round;}.cls-20,.cls-22,.cls-23,.cls-25,.cls-28,.cls-29,.cls-30,.cls-31,.cls-32,.cls-33,.cls-34,.cls-35{stroke-miterlimit:10;}.cls-20,.cls-23{stroke-width:2.25px;}.cls-21{fill:#e9b6d4;}.cls-22,.cls-29,.cls-33{fill:none;stroke:#3a3a3a;}.cls-22{stroke-width:0.63px;}.cls-23,.cls-30,.cls-34{fill:#e0e0e0;stroke:#bfbfbf;}.cls-24{fill:#332141;}.cls-25,.cls-26,.cls-31,.cls-35{fill:#464780;}.cls-25,.cls-31,.cls-35{stroke:#231f20;opacity:0.82;}.cls-25{stroke-width:0.43px;}.cls-26{opacity:0.5;}.cls-27{fill:#6ecbd5;opacity:0.39;}.cls-28{fill:#11af70;}.cls-28,.cls-30{stroke-width:2.61px;}.cls-29{stroke-width:0.73px;}.cls-31{stroke-width:0.49px;}.cls-32{fill:#991b2b;}.cls-32,.cls-34{stroke-width:5.3px;}.cls-33{stroke-width:1.48px;}</style></defs><g id="Layer_2" data-name="Layer 2"><g id="Layer_1-2" data-name="Layer 1"><path class="cls-1" d="M43.33,115.73a9.73,9.73,0,0,1-12.4-11C41.21,46.1,92,1,153.33,0,223.19-1,281,55.44,281.46,125.31a125.67,125.67,0,0,1-22.24,72.44,3.63,3.63,0,0,1-6.11-.22,182.59,182.59,0,0,0-209.78-81.8Z"/><path class="cls-2" d="M35,145.34a4.56,4.56,0,0,1-5-4,128.57,128.57,0,0,1-.9-15.16q0-6.39.62-12.62a145.71,145.71,0,0,1,229.65,84,126.67,126.67,0,0,1-20.07,22.79,4,4,0,0,1-5.56-.29,234,234,0,0,0-173-76.12A237.73,237.73,0,0,0,35,145.34Z"/><path class="cls-3" d="M202.11,72.58a2.46,2.46,0,0,0-3.49,0L192.25,79a2.46,2.46,0,0,0,3.49,3.48l6.37-6.37A2.46,2.46,0,0,0,202.11,72.58ZM134.19,12.1a2.46,2.46,0,0,0-3.48,0l-6.37,6.37A2.46,2.46,0,0,0,127.82,22l6.37-6.37A2.47,2.47,0,0,0,134.19,12.1Zm131.62,90.21a2.44,2.44,0,0,0-3.48,0l-23.87,23.87a2.46,2.46,0,1,0,3.48,3.48l23.87-23.87A2.44,2.44,0,0,0,265.81,102.31ZM243.25,107a2.47,2.47,0,0,0-3.49,0l-23.87,23.87a2.46,2.46,0,0,0,3.49,3.48l23.87-23.87a2.46,2.46,0,0,0,0-3.48ZM206,52.8a2.46,2.46,0,0,0-3.48,0L178.67,76.67a2.46,2.46,0,0,0,3.48,3.48L206,56.29A2.47,2.47,0,0,0,206,52.8Z"/><path class="cls-4" d="M239.88,219.81q-2.91,2.64-6,5.09c-2,1.59-8,.56-10.12,2-20.52,14.42-41.52,20.42-68.5,20.42-64.66,0-118-43.6-125.32-106.29A122.44,122.44,0,0,1,142.46,106.3c4.66,1,1.69,6.28,6.13,7.74a122.57,122.57,0,0,1,76,72.82c1,2.67,9.46,1.28,10.29,4A122.17,122.17,0,0,1,239.88,219.81Z"/><path class="cls-5" d="M145.19,252A126.21,126.21,0,0,1,30,141.07a122.64,122.64,0,0,1,20.77-17.22,145.37,145.37,0,0,0,103.8,112.44c2.8.77-6,16-9.33,15.69Z"/><path class="cls-6" d="M89.82,148.69c1.17-4,7.6-6,12.46-4.53,3.86,1.18,8.37,5.09,7.55,9.43s-6.17,6.41-10.2,6C93.82,159.12,88.52,153.09,89.82,148.69Zm127.61,71.36c-7.46,2-9.27,11.93-17.37,12.08-4.13.07-5.34-2.49-10.19-4.53-9.75-4.1-23.31-1.49-32.47,6A40.41,40.41,0,0,0,148.59,244a127.08,127.08,0,0,0,45.66,2.22,125.88,125.88,0,0,0,39.64-21.34c-5.49-4-11.77-6.09-16.46-4.85Zm-60.07-68.34c2.3,5.77,0,12.28-3.77,23-2.9,8.21-4.65,10.18-3.4,13.21,1.95,4.77,7.82,3.78,11.32,9.44,3.1,5,.46,8.9,2.27,12.08,4.16,7.31,24.78,4.5,40.4-1.51,8.65-3.32,21.4-8.23,30.73-17.07-.75-2.48-3.45-3.07-4.35-5.48a122.58,122.58,0,0,0-73.22-72.54c-2.55-.92-3.27-3.62-5.9-4.38q-4.42-1.26-9-2.19a106,106,0,0,0-10,11.8c-4.08,5.38-9,12-6.79,16.24,2.37,4.54,10.4,1.52,21.52,7.93,4.26,2.45,8.35,4.81,10.19,9.44ZM74,141.51c8.89,1.34,17.91-8.1,16.61-13.21-1-4.15-8.92-5.6-13.21-5.67-4.51-.07-13.44,1.25-14.73,6.42C61.4,134,67.53,140.54,74,141.51Zm46.82,51.23c-17.54-5-22.18-.22-29.08-4.9-9.47-6.44-3.43-17.35-13.59-26.81-5.41-5-12.37-6.82-18.21-7.34a11.17,11.17,0,0,0-4.12.89,126.52,126.52,0,0,0,74.85,83.78,153.64,153.64,0,0,0,4.87-15.79c4-15.08,1.77-19.79.38-21.9C133,196.33,128.33,194.91,120.78,192.74Z"/><path class="cls-7" d="M234.91,190.89c-.66.63-1.33,1.23-2,1.82-17.51,9.14-47.13,9.17-50.53,2.25-1.57-3.2,2.7-7.39.25-13.59-2.3-5.82-7.36-5.41-10.82-10.07-7.54-10.14,7-24.72.75-35-5.7-9.34-22-4.21-25.42-12.33-1.77-4.17.37-10.57,4.32-15.49a122.52,122.52,0,0,1,83.47,82.4ZM99.05,143.67a11.21,11.21,0,0,0,.12,5.73c1.15,3.77,4.76,6.5,8.41,7.84a6.29,6.29,0,0,0,2.25-3.64c.82-4.35-3.69-8.26-7.55-9.44A11.23,11.23,0,0,0,99.05,143.67ZM82.36,138a15.42,15.42,0,0,0,3.84-.73c3.13-2.82,5-6.4,4.37-8.93-1-4.15-8.92-5.6-13.21-5.66h-.11c-7-.07-9.77,9.29-3.72,12.93A15.46,15.46,0,0,0,82.36,138Z"/><path class="cls-8" d="M133.79,228.82c-1.87,6.47-4.46,14-8.29,20a126.4,126.4,0,0,1-92.2-90.17c7.79-3.9,21.93-5.41,26.6-5A145.62,145.62,0,0,0,133.79,228.82Zm44.36,11.93a146.15,146.15,0,0,1-23.63-4.46c-4.12,4.22-7.83,9.92-9.33,15.69,3.32.27,6.69.4,10.08.4a125.72,125.72,0,0,0,52.84-11.56,145.68,145.68,0,0,1-30-.07Z"/><path class="cls-8" d="M166.18,89.22A15.13,15.13,0,0,0,161.35,94a.58.58,0,0,1-1,0,15.13,15.13,0,0,0-4.83-4.82.58.58,0,0,1,0-1,15.26,15.26,0,0,0,4.83-4.83.58.58,0,0,1,1,0,15.26,15.26,0,0,0,4.83,4.83.58.58,0,0,1,0,1Zm95.71,4.61A15.47,15.47,0,0,1,257.06,89a.58.58,0,0,0-1,0,15.33,15.33,0,0,1-4.82,4.83.56.56,0,0,0,0,1,15.33,15.33,0,0,1,4.82,4.83.58.58,0,0,0,1,0,15.47,15.47,0,0,1,4.83-4.83.57.57,0,0,0,0-1ZM111.05,31.55a15.13,15.13,0,0,1-4.82-4.83.58.58,0,0,0-1,0,15.26,15.26,0,0,1-4.83,4.83.58.58,0,0,0,0,1,15.26,15.26,0,0,1,4.83,4.83.58.58,0,0,0,1,0,15.13,15.13,0,0,1,4.82-4.83A.58.58,0,0,0,111.05,31.55ZM257.27,172a15.47,15.47,0,0,1-4.83-4.83.58.58,0,0,0-1,0,15.33,15.33,0,0,1-4.82,4.83.58.58,0,0,0,0,1,15.2,15.2,0,0,1,4.82,4.82.58.58,0,0,0,1,0,15.33,15.33,0,0,1,4.83-4.82A.58.58,0,0,0,257.27,172Z"/><path class="cls-9" d="M81.15,66.7a24.42,24.42,0,0,0-7.67,7.67.91.91,0,0,1-1.55,0,24.42,24.42,0,0,0-7.67-7.67.92.92,0,0,1,0-1.55,24.42,24.42,0,0,0,7.67-7.67.92.92,0,0,1,1.55,0,24.42,24.42,0,0,0,7.67,7.67A.92.92,0,0,1,81.15,66.7Zm177,74.29a20.63,20.63,0,0,1-6.47-6.48.78.78,0,0,0-1.31,0,20.56,20.56,0,0,1-6.48,6.48.78.78,0,0,0,0,1.31,20.43,20.43,0,0,1,6.48,6.47.77.77,0,0,0,1.31,0,20.5,20.5,0,0,1,6.47-6.47A.77.77,0,0,0,258.11,141Z"/><path class="cls-10" d="M203.61,20.25a.92.92,0,0,1-1.56,0,24.08,24.08,0,0,0-7.67-7.66.93.93,0,0,1,0-1.56,24,24,0,0,0,7.67-7.67.93.93,0,0,1,1.56,0A24.08,24.08,0,0,0,211.27,11a.92.92,0,0,1,0,1.56A24.15,24.15,0,0,0,203.61,20.25ZM219,98.15a20.53,20.53,0,0,1-6.47-6.48.79.79,0,0,0-1.32,0,20.53,20.53,0,0,1-6.47,6.48.77.77,0,0,0,0,1.31,20.4,20.4,0,0,1,6.47,6.47.78.78,0,0,0,1.32,0A20.4,20.4,0,0,1,219,99.46.77.77,0,0,0,219,98.15Z"/><path class="cls-9" d="M256.07,47.87a22.18,22.18,0,1,1-22.18-22.18A22.18,22.18,0,0,1,256.07,47.87Z"/><path class="cls-11" d="M256.07,47.87a22,22,0,0,1-3.13,11.36,22.18,22.18,0,0,1-30.41-30.42,22.19,22.19,0,0,1,33.54,19.06Z"/><path class="cls-9" d="M235,39.22c-3.5,0-6.34-1.42-6.34-3.17s2.84-3.17,6.34-3.17,6.34,1.42,6.34,3.17S238.45,39.22,235,39.22Zm-5.38,5.66c-2.38,0-4.31,1-4.31,2.16s1.93,2.16,4.31,2.16,4.32-1,4.32-2.16S232,44.88,229.57,44.88Zm12.48,5.87c-2.38,0-4.31,1-4.31,2.16s1.93,2.15,4.31,2.15,4.32-1,4.32-2.15S244.43,50.75,242.05,50.75Z"/><path class="cls-3" d="M157.89,48.14C118.48,76.51,75.39,98.87,29.7,113.57c.3-2.81.78-6.18,1.25-8.93a453.38,453.38,0,0,0,122.62-62.5,3.7,3.7,0,1,1,4.32,6Z"/><path class="cls-12" d="M143.68,42.13a75.94,75.94,0,0,1-41.54,13.2h0a2.47,2.47,0,0,1,0-4.93,71.06,71.06,0,0,0,38.85-12.34,2.46,2.46,0,0,1,2.77,4.07Zm12.13,17a2.47,2.47,0,0,0-3.49,0,51.82,51.82,0,0,0-13.66,26.39,2.45,2.45,0,0,0,2,2.88,2.4,2.4,0,0,0,.46,0,2.46,2.46,0,0,0,2.42-2,46.82,46.82,0,0,1,12.37-23.88,2.46,2.46,0,0,0-.06-3.48Z"/><path class="cls-11" d="M159.8,47.51a16.73,16.73,0,0,1-10.59,2.89,16.8,16.8,0,0,1,5-9.77Z"/><path class="cls-13" d="M178.09,27.66,175,53.18A2.46,2.46,0,0,1,171.36,55l-12-6.63a12.23,12.23,0,0,1-5.89-7.51l-3.57-13.25a2.47,2.47,0,0,1,2.68-3.09Z"/><path class="cls-14" d="M183.07,30l-23,18a2.79,2.79,0,0,1-3.92-.48l-2.64-3.36A2.8,2.8,0,0,1,154,40.3l23-18a7.38,7.38,0,0,1,8.53-.42A7.4,7.4,0,0,1,183.07,30Z"/><path class="cls-15" d="M183.07,30l-9.13,7.15a4.93,4.93,0,0,1-6.08-7.76L177,22.26a7.38,7.38,0,0,1,8.53-.42A7.4,7.4,0,0,1,183.07,30Z"/><path class="cls-16" d="M241.51,118.87l1.75,7.73a1.21,1.21,0,0,0,.54.77l6.24,3.75a1.32,1.32,0,0,1-.28,2.32l-6.94,2.19a1.18,1.18,0,0,0-.7.62l-3.52,7.1a1.07,1.07,0,0,1-2.06-.24l-1.76-7.73a1.21,1.21,0,0,0-.54-.77L228,130.86a1.32,1.32,0,0,1,.28-2.32l6.94-2.19a1.21,1.21,0,0,0,.7-.62l3.52-7.1A1.07,1.07,0,0,1,241.51,118.87Z"/><path class="cls-17" d="M246.61,136.47a17,17,0,0,0-3.73-3c-.61-.36-1.2-.72-1.68-1,0,0-2.82-1.72-3.75-3.36,11.56,4.3,19.1,16.84,17.47,30.56l-.06.46a.89.89,0,0,1-.77-1,28.41,28.41,0,0,0,0-6.45c-1-.12-2.28-.43-3.17-.64,0,0-3.26-.77-3.76-2,0,0,0,0,0,0,0-.32,2.34-.43,4.08,0a9.49,9.49,0,0,1,2.62,1,28.7,28.7,0,0,0-.66-2.92,37.42,37.42,0,0,1-4.85,0s-4.59-.21-5.57-1.75a.08.08,0,0,1,0-.05c0-.44,3.05-1.16,5.48-1.08a12.85,12.85,0,0,1,4.31.92,29.14,29.14,0,0,0-1.23-2.87,27.21,27.21,0,0,1-5.55.09s-4.58-.22-5.57-1.76c0,0,0,0,0-.05,0-.44,3.05-1.16,5.48-1.08a13.07,13.07,0,0,1,4.74,1.1,29.88,29.88,0,0,0-1.9-2.84c-1.05.29-4.05-.25-5.86-.57,0,0-4.52-.81-5.3-2.46a.2.2,0,0,1,0-.05c0-.44,3.17-.76,5.58-.37a13,13,0,0,1,3.7,1.23l0,0Z"/><path class="cls-18" d="M248.61,145.29c1.82.49,3,1.21,3,1.83s-7.41.11-7.92-.69a.08.08,0,0,1,0-.05C243.62,146,246.28,145.31,248.61,145.29Zm-.57,4.85s0,0,0,0c.27.66,4.76,1.56,4.87,1.1s-.48-.86-1.43-1.3C249.86,149.74,248.08,149.86,248,150.14Zm-2-9.6c-2.34,0-5,.68-5,1.09a.12.12,0,0,0,0,.05c.59.91,8,1.46,8.12.74S248,141,246,140.54Zm-8-12.22a.15.15,0,0,0,0,.06c.08,1.08,1.5,2.38,2.64,3.24,1.78.88,3.26,1.32,3.6.78S238.2,128,238,128.32Zm4.75,6.92c-2.19-.18-4.53.11-4.57.49a.35.35,0,0,0,0,.06c.54,1.13,7.64,2,7.73,1.33s-1.23-1.39-3.17-1.88Z"/><path class="cls-19" d="M245.81,150.1c.59-.19,1.41.84,1.8,1.49,1.19,2,1,5.12.2,5.33s-2.56-2.38-2.61-4.77c0-.23,0-1.84.61-2.05Z"/><path class="cls-20" d="M253.64,173.94a14.49,14.49,0,0,0,9.15-1.88A14.88,14.88,0,0,0,269.66,162,16.16,16.16,0,0,0,266.53,149a2.84,2.84,0,0,0-4.48,3.5,10.48,10.48,0,0,1,2,8.37,9.18,9.18,0,0,1-4.18,6.27c-4.25,2.53-10.28.84-13.16-3.68a2.84,2.84,0,0,0-4.79,3.06A16.19,16.19,0,0,0,253.64,173.94Z"/><path class="cls-20" d="M197.42,121.46c-4.25-6.39,4.56-16.77,4.56-16.77,8,1.54,11.3,5.37,12.67,8.48a36.27,36.27,0,0,1,16.29.78,35.81,35.81,0,0,1,14.15,7.68c2.75-2.08,7.72-4,15.75-1,0,0,2,13.91-5.45,16.81a34.13,34.13,0,0,1,.25,19.76c-5.33,18.58-20.95,15.08-39.93,9.76s-34.13-10.44-28.79-29A34.5,34.5,0,0,1,197.42,121.46Z"/><ellipse class="cls-21" cx="235.81" cy="146.24" rx="2.86" ry="4.59" transform="translate(38.36 341.19) rotate(-76.44)"/><ellipse class="cls-21" cx="200.92" cy="136.18" rx="2.86" ry="4.59" transform="translate(21.42 299.57) rotate(-76.44)"/><path class="cls-22" d="M200.09,136.5a3.71,3.71,0,0,0-3.35-.26,3,3,0,0,0-1.11,1"/><path class="cls-22" d="M200.09,137.83a3.71,3.71,0,0,0-3.32.55,3.13,3.13,0,0,0-.83,1.23"/><path class="cls-22" d="M233.13,146.49a3.75,3.75,0,0,1,3.14,1.22,3.12,3.12,0,0,1,.57,1.36"/><path class="cls-22" d="M232.56,147.69a3.72,3.72,0,0,1,2.75,1.94,3.08,3.08,0,0,1,.22,1.46"/><ellipse class="cls-23" cx="219.97" cy="141.69" rx="13.61" ry="24.88" transform="translate(24.09 315.16) rotate(-74.31)"/><ellipse class="cls-24" cx="231.09" cy="143.92" rx="2.63" ry="1.59" transform="translate(36.99 334.82) rotate(-76.44)"/><ellipse class="cls-24" cx="207.41" cy="137.23" rx="2.63" ry="1.59" transform="translate(25.37 306.68) rotate(-76.44)"/><polygon class="cls-24" points="220.11 147.4 218.62 144.78 215.87 146.3 215.43 145.45 218.99 143.49 220.93 146.9 220.11 147.4"/><ellipse class="cls-25" cx="220.13" cy="141.82" rx="13.61" ry="24.88" transform="translate(24.08 315.41) rotate(-74.31)"/><path class="cls-26" d="M238.31,148.3c-1.62,5.78-11.5,8.06-22.06,5.09s-17.8-10-16.18-15.83,6.78,4.4,17.34,7.36S239.93,142.52,238.31,148.3Z"/><path class="cls-27" d="M207.6,130.7c.76-2.7,7.88-3.06,15.91-.81s13.92,6.27,13.16,9-5.34-2.67-13.37-4.92S206.84,133.41,207.6,130.7Z"/><path class="cls-27" d="M216.82,130.73c.31-1.1,3.22-1.25,6.51-.33s5.69,2.57,5.38,3.67-2.18-1.09-5.47-2S216.51,131.84,216.82,130.73Z"/><path class="cls-16" d="M147.56,24.49l7.07,5.86a1.41,1.41,0,0,0,1,.33l8.38-1a1.54,1.54,0,0,1,1.39,2.33L160.6,39a1.41,1.41,0,0,0-.2,1.07l1.78,9a1.25,1.25,0,0,1-2.07,1.23L153,44.41a1.4,1.4,0,0,0-1-.33l-8.38,1a1.54,1.54,0,0,1-1.39-2.33l4.84-6.91a1.37,1.37,0,0,0,.2-1.07l-1.78-9A1.25,1.25,0,0,1,147.56,24.49Z"/><path class="cls-17" d="M164.68,37.05a19.63,19.63,0,0,0-5.52-.08l-2.26.26s-3.82.4-5.83-.45c13.67-4.22,29.46,2,37.66,15.74L189,53a1,1,0,0,1-1.4-.36,32.89,32.89,0,0,0-4.53-6,37.47,37.47,0,0,1-3.37,1.66s-3.54,1.59-4.87.81a.07.07,0,0,1,0,0c-.18-.33,1.85-2,3.72-2.92a11.48,11.48,0,0,1,3.13-.91A33.3,33.3,0,0,0,179,43.08a44.62,44.62,0,0,1-4.47,3.41s-4.37,3-6.36,2.32a.09.09,0,0,1-.06,0c-.32-.39,2-3.21,4.28-4.86a14.87,14.87,0,0,1,4.61-2.2A29.57,29.57,0,0,0,173.82,40a31.32,31.32,0,0,1-5,4s-4.36,3-6.36,2.33c0,0,0,0,0,0-.33-.39,2-3.22,4.27-4.86A15.18,15.18,0,0,1,171.78,39,33.18,33.18,0,0,0,168,37.77c-.76,1-3.89,2.63-5.79,3.61,0,0-4.72,2.45-6.61,1.49a.14.14,0,0,1,0,0c-.28-.44,2.37-2.94,4.86-4.28a15.2,15.2,0,0,1,4.28-1.49Z"/><path class="cls-18" d="M172.76,43.75c2-.84,3.65-1,4-.41s-6.72,5.33-7.76,5a.11.11,0,0,1-.05,0C168.65,47.9,170.63,45.42,172.76,43.75Zm2.89,4.86,0,0c.71.42,5.48-1.93,5.25-2.43s-1.06-.45-2.24-.18C177.05,47,175.5,48.32,175.65,48.61ZM167,41.21c-2.13,1.67-4.11,4.15-3.8,4.51,0,0,0,0,.05,0,1.18.42,8.39-4.33,8-5.06s-2.11-.41-4.23.51Zm-16-5.58s0,0,0,.06c.84,1,3.06,1.13,4.72,1.12,2.25-.45,3.93-1.09,3.86-1.83s-8.69.22-8.61.65Zm9.26,3c-2.14,1.38-4.09,3.3-3.86,3.67a.23.23,0,0,0,0,0c1.3.66,8.41-3.59,8.05-4.24s-2.12-.4-4.24.52Z"/><path class="cls-19" d="M173.58,50.14c.4-.59,1.89-.22,2.7.11,2.52,1,4.53,4,4,4.75s-4-.38-5.77-2.53c-.17-.21-1.33-1.67-.89-2.33Z"/><path class="cls-28" d="M197.63,66.52a16.83,16.83,0,0,0,7.08-8.2,17.24,17.24,0,0,0-.83-14.14,18.71,18.71,0,0,0-12-9.65,3.29,3.29,0,1,0-1.65,6.37A12.11,12.11,0,0,1,198,47.16a10.64,10.64,0,0,1,.59,8.72c-2.12,5.33-8.85,8-14.69,5.92A3.29,3.29,0,1,0,181.66,68,18.78,18.78,0,0,0,197.63,66.52Z"/><path class="cls-28" d="M108.87,58c-8.42-2.87-7.67-18.64-7.67-18.64,8.42-4.22,14.18-3,17.65-1.16a42.12,42.12,0,0,1,34-13.74c1-3.86,4.29-9.09,13.78-12,0,0,11.71,11.34,6.88,19.29a39.66,39.66,0,0,1,14.2,18c8.23,20.85-8.6,28.66-29.81,37.18s-38.74,14.53-47-6.32A40,40,0,0,1,108.87,58Z"/><ellipse class="cls-21" cx="161.67" cy="53.66" rx="5.32" ry="3.32" transform="translate(-7.85 70.39) rotate(-24)"/><ellipse class="cls-21" cx="122.49" cy="69.08" rx="5.32" ry="3.32" transform="translate(-17.51 55.79) rotate(-24)"/><path class="cls-29" d="M122,70a4.29,4.29,0,0,0-3.27,2.13,3.47,3.47,0,0,0-.32,1.68"/><path class="cls-29" d="M122.88,71.18A4.31,4.31,0,0,0,120.23,74a3.53,3.53,0,0,0,.1,1.71"/><path class="cls-29" d="M159.38,55.79a4.32,4.32,0,0,1,3.74-1.1,3.61,3.61,0,0,1,1.49.85"/><path class="cls-29" d="M159.7,57.3a4.25,4.25,0,0,1,3.89-.16,3.37,3.37,0,0,1,1.24,1.18"/><ellipse class="cls-30" cx="143.89" cy="60.68" rx="28.85" ry="15.78" transform="translate(-12.25 57.98) rotate(-21.88)"/><ellipse class="cls-24" cx="155.69" cy="54.88" rx="1.84" ry="3.04" transform="translate(-8.86 68.07) rotate(-24)"/><ellipse class="cls-24" cx="129.19" cy="65.46" rx="1.84" ry="3.04" transform="translate(-15.46 58.21) rotate(-24)"/><polygon class="cls-24" points="148.05 65.83 144.83 64.47 143.38 67.82 142.37 67.35 144.25 63.02 148.45 64.8 148.05 65.83"/><ellipse class="cls-31" cx="144.13" cy="60.68" rx="28.85" ry="15.78" transform="translate(-12.23 58.07) rotate(-21.88)"/><path class="cls-26" d="M165.42,53.79c2.59,6.46-4.88,15.53-16.68,20.27S125.28,77.4,122.68,71s9.34-.75,21.14-5.49S162.82,47.34,165.42,53.79Z"/><path class="cls-27" d="M124.76,59.32c-1.21-3,5.07-8.39,14-12s17.23-4.07,18.44-1-6.79,1.33-15.76,4.93S126,62.34,124.76,59.32Z"/><path class="cls-27" d="M133.25,52.84c-.49-1.24,2.08-3.44,5.75-4.91s7-1.66,7.54-.43-2.78.54-6.45,2S133.75,54.07,133.25,52.84Z"/><path class="cls-16" d="M125.73,77.28,132,94.84a2.85,2.85,0,0,0,1.46,1.65l15.6,7a3.11,3.11,0,0,1,0,5.5l-15.6,7a2.85,2.85,0,0,0-1.46,1.65l-6.24,17.55a2.54,2.54,0,0,1-4.89,0l-6.24-17.55a2.83,2.83,0,0,0-1.47-1.65l-15.59-7a3.11,3.11,0,0,1,0-5.5l15.59-7a2.83,2.83,0,0,0,1.47-1.65l6.24-17.56A2.54,2.54,0,0,1,125.73,77.28Z"/><path class="cls-17" d="M142.52,117a39.34,39.34,0,0,0-9.54-5.87c-1.52-.67-3-1.34-4.2-1.91,0,0-7.07-3.25-9.69-6.81,28.2,6.83,49.27,34,49.27,66.49,0,.37,0,.73,0,1.1a2.07,2.07,0,0,1-2.06-2.08,66.62,66.62,0,0,0-1.73-15.06c-2.31,0-5.43-.37-7.58-.61,0,0-7.82-.9-9.33-3.64a.16.16,0,0,1,0-.09c0-.76,5.35-1.64,9.51-1.23a22.91,22.91,0,0,1,6.41,1.68,66.92,66.92,0,0,0-2.36-6.63,89.86,89.86,0,0,1-11.33,1.29s-10.76.76-13.49-2.55a.19.19,0,0,1-.06-.12c-.16-1,6.79-3.55,12.5-4a30.75,30.75,0,0,1,10.32.95,68.71,68.71,0,0,0-3.67-6.34c-2.79,1-9,1.45-12.94,1.73,0,0-10.76.77-13.49-2.55a.26.26,0,0,1-.06-.12c-.16-1,6.79-3.55,12.5-4a30.59,30.59,0,0,1,11.37,1.26,67.43,67.43,0,0,0-5.24-6.1c-2.36,1-9.51.54-13.83.28,0,0-10.77-.62-13-4.26a.28.28,0,0,1,0-.12c0-1,7.2-2.66,12.92-2.41a31,31,0,0,1,9,1.84l-.06,0Z"/><path class="cls-18" d="M149.64,137c4.38.64,7.45,2,7.4,3.44,0,1.77-17.24,2.32-18.66.6a.26.26,0,0,1-.06-.12C138.17,140,144.2,137.69,149.64,137Zm0,11.48a.11.11,0,0,0,0,.09c.81,1.47,11.55,2.32,11.68,1.22.1-.9-1.38-1.88-3.72-2.63C153.8,147,149.67,147.8,149.65,148.47Zm-7.36-21.84c-5.44.7-11.45,3-11.3,3.91a.28.28,0,0,0,0,.12c1.61,2,19.11,1.17,19.16-.53,0-1.51-3.26-2.9-7.91-3.5Zm-22.08-26.32a.18.18,0,0,0,0,.13c.47,2.52,4.16,5.14,7.05,6.85,4.4,1.55,8,2.18,8.62.81s-15.36-8.64-15.67-7.79Zm13,14.84c-5.17.18-10.56,1.51-10.54,2.41a.2.2,0,0,0,0,.12c1.57,2.5,18.37,2.47,18.41,1s-3.26-2.91-7.91-3.51Z"/><path class="cls-19" d="M144.45,149c1.3-.61,3.51,1.58,4.59,3,3.34,4.37,3.73,11.67,2,12.38s-6.63-4.85-7.43-10.4c-.08-.53-.58-4.29.88-5Z"/><path class="cls-32" d="M169.34,202.48a34,34,0,0,0,20.84-6.94,34.89,34.89,0,0,0,13.22-25.49,38,38,0,0,0-10.89-29.29,6.68,6.68,0,1,0-9.49,9.39,24.62,24.62,0,0,1,7.06,19,21.56,21.56,0,0,1-8,15.81c-9.22,7.07-23.76,4.8-31.74-4.94A6.68,6.68,0,1,0,140,188.47,38.15,38.15,0,0,0,169.34,202.48Z"/><path class="cls-32" d="M23.51,95.57c-11.68-13.74,6-40.42,6-40.42,19,1.38,27.87,9.39,31.94,16.29a85.39,85.39,0,0,1,73.41,11.28c5.85-5.62,16.92-11.37,36.5-6.63,0,0,8.63,31.91-8,40.75a80.48,80.48,0,0,1,6.07,46.07c-7.3,44.86-44.74,41-90.52,33.86S-3.72,181.87,3.58,137A81.17,81.17,0,0,1,23.51,95.57Z"/><ellipse class="cls-21" cx="120.03" cy="142.76" rx="6.74" ry="10.79" transform="translate(-35.9 245.09) rotate(-83.22)"/><ellipse class="cls-21" cx="35.76" cy="128.97" rx="6.74" ry="10.79" transform="translate(-96.52 149.25) rotate(-83.22)"/><path class="cls-33" d="M33.92,129.94c-.37-.17-4.51-2-7.9.31a7.07,7.07,0,0,0-2.3,2.6"/><path class="cls-33" d="M34.28,133c-.39-.07-4.85-.8-7.58,2.22a7,7,0,0,0-1.6,3.09"/><path class="cls-33" d="M113.84,144.1c.39-.09,4.82-1,7.66,2a7,7,0,0,1,1.7,3"/><path class="cls-33" d="M112.83,147.05c.41,0,4.91.22,7,3.76a7,7,0,0,1,.92,3.35"/><ellipse class="cls-34" cx="81.78" cy="136.53" rx="32" ry="58.5" transform="matrix(0.15, -0.99, 0.99, 0.15, -65.76, 196.19)"/><ellipse class="cls-24" cx="108.35" cy="138.66" rx="6.17" ry="3.73" transform="translate(-42.14 229.89) rotate(-83.22)"/><ellipse class="cls-24" cx="51.21" cy="129.61" rx="6.17" ry="3.73" transform="translate(-83.54 165.15) rotate(-83.22)"/><polygon class="cls-24" points="83.69 149.82 79.49 144.11 73.47 148.44 72.22 146.58 79.98 141 85.45 148.44 83.69 149.82"/><ellipse class="cls-35" cx="82.18" cy="136.79" rx="32" ry="58.5" transform="matrix(0.15, -0.99, 0.99, 0.15, -65.68, 196.81)"/><path class="cls-26" d="M126.43,146.88c-2.19,13.93-24.61,22-50.08,18S32,146.36,34.17,132.42s17,8.38,42.51,12.37S128.61,132.94,126.43,146.88Z"/><path class="cls-27" d="M49.86,114.32c1-6.53,17.54-9.35,36.91-6.32S121,118.78,120,125.3s-13.21-4.74-32.57-7.77S48.83,120.84,49.86,114.32Z"/><path class="cls-27" d="M71.38,111.83c.42-2.67,7.18-3.82,15.1-2.58s14,4.41,13.59,7.08-5.4-1.94-13.32-3.18S71,114.5,71.38,111.83Z"/></g></g></svg>