<svg xmlns="http://www.w3.org/2000/svg" viewBox="0 0 210.04 185.45"><defs><style>.cls-1{fill:#f7941d;opacity:0.61;}.cls-2{fill:#f9ac47;}.cls-3{fill:#f39e24;}.cls-4{fill:#d0dfe8;}.cls-5{fill:#aabece;}.cls-6{fill:#eaf0f4;}.cls-7{fill:#ae6528;}.cls-8{fill:#9a5223;}.cls-9{fill:#036942;}.cls-10{fill:#01a66e;}.cls-11{fill:#06905e;}.cls-12{fill:#57bf93;}.cls-13{fill:#7ac8a5;}.cls-14{fill:#98d3b8;}.cls-15{fill:#b0cfed;}.cls-16{fill:#bddff6;}.cls-17{fill:#c1ab80;stroke:#6b72b5;stroke-linecap:round;stroke-width:3.9px;}.cls-17,.cls-19{stroke-miterlimit:10;}.cls-18{fill:#121832;}.cls-19{fill:none;stroke:#ae8bbb;stroke-width:2.64px;}.cls-20{fill:#ae8bbb;}.cls-21{fill:#73c8f0;}.cls-22{fill:#d9f0f7;}.cls-23{fill:#fff;}.cls-24{fill:#f1749d;}.cls-25{fill:#3e82c4;}.cls-26{fill:#3b2d60;}</style></defs><g id="Layer_2" data-name="Layer 2"><g id="Layer_1-2" data-name="Layer 1"><path class="cls-1" d="M150.57,2.72A59.41,59.41,0,0,0,99.34,32a67.21,67.21,0,1,0,46.73,89.45c1.49.11,3,.19,4.5.19a59.47,59.47,0,1,0,0-118.93Z"/><g id="Layer_70" data-name="Layer 70"><path class="cls-2" d="M8,51.14h98.18v51.14H8Z"/><path class="cls-3" d="M106.14,102.28H8c45.2-3.2,80.2-17.7,98.18-51.14Z"/><path class="cls-4" d="M83.64,0A16.35,16.35,0,0,1,67.28,16.36h-2V12.27l8.19-4.09V0Z"/><path class="cls-5" d="M98,12.27v4.09H67.28A16.35,16.35,0,0,0,83.64,0h6.14V8.18Z"/><path class="cls-6" d="M65.23,69.55H98v22.5H65.23Z"/><path class="cls-4" d="M98,92.05H65.23a34.2,34.2,0,0,0,32.12-22.5H98Z"/><circle class="cls-7" cx="82.62" cy="60.34" r="3.07"/><circle class="cls-7" cx="92.85" cy="60.34" r="3.07"/><path class="cls-5" d="M75.46,53.18H71.37V43h8.18v4.09H75.46Z"/><path class="cls-5" d="M91.82,53.18H87.73V47.05H83.64V43h8.18Z"/><path class="cls-7" d="M16.14,61.37H55V75.68H16.14Z"/><path class="cls-7" d="M16.14,79.78H55V94.09H16.14Z"/><path class="cls-8" d="M55,79.78V94.09H16.14C33.53,92.38,50.79,90.58,55,79.78Z"/><path class="cls-8" d="M55,61.37V75.68H16.14C35.49,75.79,52.71,74.29,55,61.37Z"/><path class="cls-3" d="M30.46,83.87h8.18V88H30.46Z"/><path class="cls-5" d="M77.51,73.64h8.18v4.09H77.51Z"/><path class="cls-7" d="M38.64,4.09H53V8.18H38.64Z"/><path class="cls-7" d="M16.14,4.09H42.73V8.18H16.14Z"/><path class="cls-7" d="M10,4.09H20.23V8.18H10Z"/><path class="cls-4" d="M16.14,0h4.09V30.68H16.14Z"/><path class="cls-5" d="M38.64,0h4.09V20.46H38.64Z"/><circle class="cls-4" cx="18.19" cy="32.73" r="4.09"/><path class="cls-5" d="M50.91,28.64A10.24,10.24,0,1,1,46.23,20,10.21,10.21,0,0,1,50.91,28.64Z"/><path class="cls-4" d="M47.85,25.57A10.23,10.23,0,0,1,37.64,35.81a10.12,10.12,0,0,1-5.56-1.63A10.22,10.22,0,0,1,46.23,20a10.24,10.24,0,0,1,1.62,5.54Z"/><path class="cls-3" d="M3.87,49.09H110.23v4.09H3.87Z"/><path class="cls-3" d="M30.46,67.5h8.18v4.09H30.46Z"/></g><path class="cls-9" d="M136.87,113.5c.11,3.34.06,6.71-.16,10.09a2,2,0,0,1-2,1.92,1.94,1.94,0,0,1-1.88-2.05,97.2,97.2,0,0,0,0-13.11h0a83.68,83.68,0,0,1-10.47-2.11s-9.72-2.39-11.18-6.1a.17.17,0,0,1,0-.12c.15-1,7-1.2,12.19,0a28.29,28.29,0,0,1,9,3.93s0,0,0,0c-.27-2.37-.64-4.72-1.09-7a0,0,0,0,0,0,0,99.09,99.09,0,0,1-12.14-1.67s-11.1-2-12.62-5.67a.14.14,0,0,1,0-.12c.21-1,8.13-1.54,14.06-.56a33.23,33.23,0,0,1,9.65,3.24s0,0,0,0c-.71-2.85-1.54-5.68-2.5-8.45l0,0a82.54,82.54,0,0,1-10.62.8s-10,.32-12.42-2.85a.35.35,0,0,1,0-.12c-.11-1,6.43-3,11.74-3.29a28.25,28.25,0,0,1,9.8,1.35s0,0,0,0c-.49-1.22-1-2.44-1.54-3.64h0a86.45,86.45,0,0,1-10.07-2.58s-9.58-2.87-10.86-6.64a.14.14,0,0,1,0-.12c.19-.94,7.05-.86,12.17.59a28.09,28.09,0,0,1,5.56,2.29s0,0,0,0c-.33-.63-.68-1.24-1-1.86h0c-1.95-2.08-4.18-4.93-5.75-7,0,0-6.16-7.89-5-11.7a.2.2,0,0,1,.06-.11c.7-.65,6.25,3.39,9.58,7.53a27.35,27.35,0,0,1,5.21,10.62h0q1.11,2,2.13,4.08a0,0,0,1,0,0,0c.15-2.07.37-4.19.55-5.86,0,0,1.06-10,4.53-11.91a.39.39,0,0,1,.12,0c1,0,2.14,6.78,1.65,12.08a26.73,26.73,0,0,1-4.08,11.92s0,0,0,0c.63,1.54,1.23,3.11,1.78,4.69,0,0,0,0,0,0,1.1-2.23,2.46-4.63,3.47-6.43,0,0,4.93-8.71,8.89-9.13a.35.35,0,0,1,.12,0c.87.4-.73,7.07-3.28,11.74a27.66,27.66,0,0,1-7.62,8.75,0,0,0,0,0,0,0c.78,2.65,1.45,5.33,2,8,0,0,0,0,0,0,1-1.9,2.07-3.83,2.93-5.34,0,0,4.92-8.71,8.88-9.13a.32.32,0,0,1,.12,0c.87.4-.73,7.07-3.28,11.74a27.71,27.71,0,0,1-7.62,8.76h0c.28,2,.5,3.94.66,5.93,0,0,0,0,0,0,.94-1.08,1.92-2.14,2.71-3,0,0,5.15-5.55,8.14-5.16l.09,0c.57.45-1.78,5.08-4.48,8.07a21.65,21.65,0,0,1-6.22,4.7Z"/><path class="cls-10" d="M130.15,111.15c1.12,3.15,2.09,6.38,2.91,9.66a2,2,0,0,1-1.3,2.43,1.92,1.92,0,0,1-2.41-1.39,96.81,96.81,0,0,0-4-12.47l0,0a81.6,81.6,0,0,1-10.61,1.17s-10,.66-12.51-2.42a.38.38,0,0,1,0-.11c-.14-1,6.31-3.27,11.62-3.7a28.32,28.32,0,0,1,9.81,1s0,0,0,0q-1.47-3.27-3.18-6.4h0a100.16,100.16,0,0,1-12.08,2.1s-11.18,1.47-13.74-1.58a.17.17,0,0,1,0-.12c-.09-1,7.28-3.93,13.23-4.79a32.86,32.86,0,0,1,10.17.16s0,0,0,0q-2.3-3.77-4.94-7.3h0a82.45,82.45,0,0,1-9.88,4s-9.44,3.34-12.7,1a.39.39,0,0,1-.08-.09c-.39-.88,5.2-4.85,10.19-6.7a28.37,28.37,0,0,1,9.74-1.68s0,0,0,0c-.84-1-1.69-2-2.57-3h0a85.38,85.38,0,0,1-10.37.6s-10,.17-12.37-3a.35.35,0,0,1,0-.12c-.09-1,6.47-3,11.79-3.12a27.33,27.33,0,0,1,6,.5s0,0,0,0l-1.54-1.45h0c-2.49-1.39-5.47-3.43-7.58-4.87,0,0-8.26-5.65-8.33-9.63a.17.17,0,0,1,0-.13c.48-.83,7,1.34,11.42,4.28a27.49,27.49,0,0,1,8.18,8.54h0q1.68,1.59,3.27,3.24s0,0,0,0c-.48-2-.91-4.11-1.25-5.75,0,0-2-9.81.71-12.72a.23.23,0,0,1,.1-.07c.92-.27,4.09,5.82,5.23,11a26.71,26.71,0,0,1-.27,12.6v0q1.62,1.92,3.13,3.92s0,0,0,0c.38-2.46.94-5.16,1.36-7.19,0,0,2.05-9.79,5.7-11.38a.22.22,0,0,1,.13,0c.95.11,1.44,7,.43,12.18a27.69,27.69,0,0,1-4.61,10.65s0,0,0,0q2.33,3.44,4.34,7s0,0,0,0c.36-2.11.81-4.28,1.17-6,0,0,2-9.79,5.7-11.38a.17.17,0,0,1,.12,0c1,.11,1.45,7,.43,12.18a27.69,27.69,0,0,1-4.61,10.65v0q1.29,2.68,2.42,5.44a0,0,0,0,0,0,0c.57-1.31,1.19-2.61,1.68-3.66,0,0,3.23-6.85,6.19-7.38a.19.19,0,0,1,.1,0c.68.25-.16,5.37-1.82,9a21.72,21.72,0,0,1-4.51,6.36Z"/><path class="cls-11" d="M131,123.31a1.94,1.94,0,0,1-1.67-1.46,95.6,95.6,0,0,0-4-12.49,83.69,83.69,0,0,1-10.63,1.17s-10,.66-12.51-2.42a.38.38,0,0,1,0-.11c-.14-1,6.31-3.27,11.62-3.7a28.55,28.55,0,0,1,9.85,1c-1-2.19-2-4.33-3.2-6.44a100.33,100.33,0,0,1-12.09,2.1s-11.18,1.47-13.74-1.58a.17.17,0,0,1,0-.12c-.09-1,7.28-3.93,13.23-4.79a32.85,32.85,0,0,1,10.22.17c-1.55-2.52-3.21-5-5-7.35a80.37,80.37,0,0,1-9.89,4s-9.44,3.34-12.7,1a.39.39,0,0,1-.08-.09c-.39-.88,5.2-4.85,10.19-6.7a28.42,28.42,0,0,1,9.78-1.68c-.84-1-1.71-2-2.6-3a85.55,85.55,0,0,1-10.38.6s-10,.17-12.37-3a.35.35,0,0,1,0-.12c-.09-1,6.47-3,11.79-3.12a27.22,27.22,0,0,1,6.05.51l-1.59-1.51c-2.5-1.39-5.48-3.43-7.59-4.87,0,0-7.36-5-8.25-8.95a85.81,85.81,0,0,1,45.69,63Z"/><path class="cls-12" d="M183.4,59.86c-.74,3.92-9.83,8.1-9.83,8.1-1.13.53-2.49,1.15-3.9,1.77a36.6,36.6,0,0,0-8.85,5.44l0,0a28.5,28.5,0,0,1,8.34-1.71c5.31-.23,12,1.27,12,2.23a.25.25,0,0,1,0,.12c-2.12,3.37-12.11,4-12.11,4-4,.23-10.64.62-12.83-.27a60.83,60.83,0,0,0-4.86,5.67A28.24,28.24,0,0,1,161.8,84c5.3.46,11.75,2.81,11.6,3.75a.22.22,0,0,1-.06.12c-2.53,3.07-12.51,2.36-12.51,2.36-3.63-.26-9.41-.67-12-1.61a60.38,60.38,0,0,0-3.4,5.89,28.51,28.51,0,0,1,9.57-.89c5.3.45,11.74,2.8,11.59,3.75a.22.22,0,0,1-.05.11C164,100.59,154,99.88,154,99.88a84.64,84.64,0,0,1-10.52-1.2,63.21,63.21,0,0,0-2.18,6.15,20.54,20.54,0,0,1,5.94-1.55c3.86-.39,8.8.43,8.82,1.13a.41.41,0,0,1,0,.09c-1.41,2.54-8.66,3.37-8.66,3.37a69,69,0,0,1-7,.56,61.79,61.79,0,0,0-1.6,14,1.93,1.93,0,0,1-2.05,1.92,2,2,0,0,1-1.8-2,65.51,65.51,0,0,1,1.57-14.19c-1.43-1.89-3.05-4.57-4.17-6.44,0,0-4.21-7-2.92-10a.16.16,0,0,1,.06-.08c.63-.45,4.72,3.35,7,7a22.77,22.77,0,0,1,1.69,3.34c.3-.91.62-1.82,1-2.72a80.37,80.37,0,0,1-3.67-10.24s-2.94-9.57-.52-12.73a.23.23,0,0,1,.1-.07c.89-.36,4.63,5.39,6.27,10.45A27.41,27.41,0,0,1,142.43,92q1.14-2.17,2.44-4.26a82,82,0,0,1-3.64-10.17s-2.94-9.57-.52-12.73a.32.32,0,0,1,.1-.08c.89-.35,4.63,5.4,6.27,10.45a28.32,28.32,0,0,1,1.29,7.48q1.42-1.87,3-3.63a83.48,83.48,0,0,1,.31-10.58s.71-10,4.11-12a.25.25,0,0,1,.12,0c1,0,2.37,6.7,2.07,12a26.84,26.84,0,0,1-.73,4.8c.59-.51,1.18-1,1.78-1.5a37.65,37.65,0,0,0,3.68-3.46A28.06,28.06,0,0,1,171.42,62c4.86-2.16,11.64-3.2,12-2.3a.28.28,0,0,1,0,.12Z"/><path class="cls-13" d="M160.82,75.17l0,0a28.5,28.5,0,0,1,8.34-1.71c5.31-.23,12,1.27,12,2.23a.25.25,0,0,1,0,.12c-2.12,3.37-12.11,4-12.11,4-4,.23-10.64.62-12.83-.27a60.83,60.83,0,0,0-4.86,5.67A28.24,28.24,0,0,1,161.8,84c5.3.46,11.75,2.81,11.6,3.75a.22.22,0,0,1-.06.12c-2.53,3.07-12.51,2.36-12.51,2.36-3.63-.26-9.41-.67-12-1.61a60.38,60.38,0,0,0-3.4,5.89,28.51,28.51,0,0,1,9.57-.89c5.3.45,11.74,2.8,11.59,3.75a.22.22,0,0,1-.05.11C164,100.59,154,99.88,154,99.88a84.64,84.64,0,0,1-10.52-1.2,63.21,63.21,0,0,0-2.18,6.15,20.54,20.54,0,0,1,5.94-1.55c3.86-.39,8.8.43,8.82,1.13a.41.41,0,0,1,0,.09c-1.41,2.54-8.66,3.37-8.66,3.37a69,69,0,0,1-7,.56,61.79,61.79,0,0,0-1.6,14,1.92,1.92,0,0,1-1.92,1.92v-1c0-30.14,19.54-55.34,45.69-61.68-2.43,3.31-9,6.32-9,6.32-1.13.53-2.49,1.15-3.9,1.77a36.6,36.6,0,0,0-8.85,5.44Z"/><path class="cls-14" d="M164.72,97.4a.21.21,0,0,1-.06.11c-1.31,1.6-17.26,1.09-17.31-.55,0-1.36,2.81-2.6,6.87-3.19C159.27,94.42,164.85,96.52,164.72,97.4Zm-17.91,5.79c-2.17.69-3.55,1.6-3.45,2.43.12,1,10.08.24,10.83-1.12a.17.17,0,0,0,0-.09C154.19,103.79,150.36,103.08,146.81,103.19Zm14.22-19c-4.31.56-7.37,1.85-7.33,3.25,0,1.58,16.27,2.31,17.77.5a.35.35,0,0,0,.05-.12c.14-.88-5.44-3-10.49-3.63Zm20.48-24.41C181.23,59,166.43,65.8,167,67s3.92.69,8-.75c2.68-1.59,6.1-4,6.54-6.36a.28.28,0,0,0,0-.12ZM169.44,73.51c-4.31.56-7.38,1.84-7.34,3.25s15.62,1.42,17.08-.9a.4.4,0,0,0,0-.12c0-.83-5-2.07-9.78-2.23Z"/><path class="cls-15" d="M166.6,117.34l-3.24,16.29a47.15,47.15,0,0,1-58.4,0l-3.23-16.29a1.92,1.92,0,0,1,1.89-2.3h61.09A1.93,1.93,0,0,1,166.6,117.34Z"/><path class="cls-16" d="M166.6,117.34l-2.83,14.2A47.14,47.14,0,0,1,113.49,130,8.17,8.17,0,0,1,118.07,115h46.64a1.93,1.93,0,0,1,1.89,2.3Z"/><path class="cls-17" d="M137.29,90.89c6.22-13.07-8-25.44-8-25.44-10.3-.38-17,3.24-20.46,5.94A61.24,61.24,0,0,0,74,70.78c-3-2.85-9.69-7.72-21.18-7.85,0,0-16.14,12.7-8.39,26.77a55.28,55.28,0,0,0-13.1,35.68c0,31.38,26.44,34.56,59.05,34.56s59.05-3.18,59.05-34.56A55.24,55.24,0,0,0,137.29,90.89Z"/><path class="cls-18" d="M66,113.35c0,4.19-2.31,1.59-5.17,1.59s-5.17,2.6-5.17-1.59,2.32-7.58,5.17-7.58S66,109.16,66,113.35Z"/><path class="cls-18" d="M120.18,113.35c0,4.19-2.31,1.59-5.17,1.59s-5.17,2.6-5.17-1.59,2.32-7.58,5.17-7.58S120.18,109.16,120.18,113.35Z"/><path class="cls-17" d="M31.6,113.55S12,131.88,28.77,148c2.69,2.58,23.92,25.23,68.35,27.23,21.41,1,39.36-6.31,46.12-16.57s1.22,2.93-28.94-13.4c-37.1-20.09-71.83-5-71.83-5"/><path class="cls-19" d="M79.08,120.37s5.66,9,10.67-2.7c0,0,4,11,11,3.14"/><path class="cls-20" d="M52.43,115A4,4,0,0,1,51.07,118a4,4,0,0,1-1.3.75,3.91,3.91,0,0,1-1.8.19A4,4,0,0,1,49.34,116a3.89,3.89,0,0,1,1.3-.75A3.85,3.85,0,0,1,52.43,115Z"/><path class="cls-20" d="M57.41,115.73a4,4,0,0,1-.44,1.75,4.05,4.05,0,0,1-.93,1.18,3.91,3.91,0,0,1-1.3.76,3.86,3.86,0,0,1-1.79.18,3.82,3.82,0,0,1,.43-1.75,4.05,4.05,0,0,1,.93-1.18,4,4,0,0,1,3.1-.94Z"/><path class="cls-20" d="M126.35,113.55a3.85,3.85,0,0,1,1.79.19,4.06,4.06,0,0,1,1.3.75,3.75,3.75,0,0,1,.93,1.18,3.82,3.82,0,0,1,.44,1.75,3.89,3.89,0,0,1-3.1-.94,3.87,3.87,0,0,1-.92-1.18A3.82,3.82,0,0,1,126.35,113.55Z"/><path class="cls-20" d="M121.37,114.24a3.91,3.91,0,0,1,1.8.19,4.18,4.18,0,0,1,1.3.75,4.05,4.05,0,0,1,.93,1.18,4,4,0,0,1,.43,1.75,3.73,3.73,0,0,1-1.79-.18,4,4,0,0,1-2.67-3.69Z"/><path class="cls-21" d="M2.27,164.79,4.84,181.4a4.06,4.06,0,0,0,4,3.43H53.77a4,4,0,0,0,4-3.43l2.57-16.61Z"/><path class="cls-22" d="M6.2,168l1.59,10.29a4.06,4.06,0,0,0,4,3.43h39a4,4,0,0,0,4-3.43L56.41,168Z"/><path class="cls-23" d="M25.12,181.67h6.79L37.49,168H30.7Z"/><path class="cls-23" d="M32.87,168l-5.58,13.72h2.45L35.32,168Z"/><path class="cls-23" d="M28.53,168,23,181.67H34.08L39.66,168Z"/><path class="cls-24" d="M56.52,154.66H6.1a3.83,3.83,0,0,0-3.83,3.82v3.21H60.34v-3.21A3.82,3.82,0,0,0,56.52,154.66Z"/><path class="cls-21" d="M60.44,164.79H2.17a1.55,1.55,0,1,1,0-3.1H60.44a1.55,1.55,0,0,1,0,3.1Z"/><path class="cls-25" d="M19.84,161.69v3.38a4.73,4.73,0,0,0,4.73,4.73H38.05a4.73,4.73,0,0,0,4.73-4.73v-3.38Z"/><path class="cls-21" d="M7.23,134.62,9.8,151.23a4.06,4.06,0,0,0,4,3.43h35a4,4,0,0,0,4-3.43l2.57-16.61Z"/><path class="cls-22" d="M11.16,137.78l1.59,10.29a4.06,4.06,0,0,0,4,3.43H45.86a4,4,0,0,0,4-3.43l1.6-10.29Z"/><path class="cls-23" d="M30.7,137.78,25.12,151.5h6.79l5.58-13.72Z"/><path class="cls-23" d="M32.87,137.78,27.29,151.5h2.45l5.58-13.72Z"/><path class="cls-23" d="M28.53,137.78,23,151.5H34.08l5.58-13.72Z"/><path class="cls-24" d="M51.56,124.49H11.06a3.82,3.82,0,0,0-3.83,3.82v3.21H55.38v-3.21A3.82,3.82,0,0,0,51.56,124.49Z"/><path class="cls-21" d="M55.48,131.52H7.13a1.55,1.55,0,1,0,0,3.1H55.48a1.55,1.55,0,1,0,0-3.1Z"/><path class="cls-23" d="M19.84,131.52v3.38a4.73,4.73,0,0,0,4.73,4.73H38.05a4.73,4.73,0,0,0,4.73-4.73v-3.38Z"/><path class="cls-25" d="M19.84,133a4.73,4.73,0,0,0,4.73,4.73H38.05A4.73,4.73,0,0,0,42.78,133v-1.52H19.84Z"/><path class="cls-26" d="M62.61,163.24A2.18,2.18,0,0,0,61,161.13v-2.65A4.44,4.44,0,0,0,56.52,154H52a4.65,4.65,0,0,0,1.45-2.72l2.49-16.13A2.17,2.17,0,0,0,56,131v-2.65a4.44,4.44,0,0,0-4.44-4.44H47.32a.62.62,0,1,0,0,1.24h4.24a3.21,3.21,0,0,1,3.2,3.2v2.59H7.85v-2.59a3.21,3.21,0,0,1,3.21-3.2H35a.62.62,0,1,0,0-1.24h-24a4.45,4.45,0,0,0-4.45,4.44V131a2.17,2.17,0,0,0,.08,4.23l2.5,16.13A4.64,4.64,0,0,0,10.63,154H6.1a4.45,4.45,0,0,0-4.45,4.44v2.66a2.16,2.16,0,0,0,.08,4.22l2.5,16.13a4.63,4.63,0,0,0,4.61,4H53.77a4.63,4.63,0,0,0,4.61-4l2.5-16.13a2.17,2.17,0,0,0,1.73-2.12Zm-7.23-31.1h.11a.93.93,0,0,1,0,1.86H43.4v-1.86ZM42.16,134.9A4.12,4.12,0,0,1,38.05,139H24.57a4.12,4.12,0,0,1-4.11-4.11v-2.76h21.7Zm-17.59,5.35H38.05a5.32,5.32,0,0,0,4-1.85h8.65L49.25,148a3.41,3.41,0,0,1-3.39,2.91H16.75A3.41,3.41,0,0,1,13.36,148l-1.48-9.57h8.65a5.34,5.34,0,0,0,4,1.85ZM6.2,133.07a.93.93,0,0,1,.93-.93H19.22V134H7.13A.93.93,0,0,1,6.2,133.07Zm4.22,18.06L8,135.23H19.24a5.19,5.19,0,0,0,.49,1.93H11.16a.64.64,0,0,0-.47.21.61.61,0,0,0-.14.5l1.59,10.29a4.64,4.64,0,0,0,4.61,4H45.86a4.66,4.66,0,0,0,4.62-4l1.59-10.29a.61.61,0,0,0-.61-.71H42.89a5.19,5.19,0,0,0,.49-1.93H54.66l-2.46,15.9A3.41,3.41,0,0,1,48.81,154h-35a3.41,3.41,0,0,1-3.39-2.91Zm-7.53,7.35a3.21,3.21,0,0,1,3.21-3.2H56.52a3.2,3.2,0,0,1,3.2,3.2v2.59H2.89Zm39.27,6.59a4.12,4.12,0,0,1-4.11,4.11H24.57a4.12,4.12,0,0,1-4.11-4.11v-2.76h21.7Zm-17.59,5.35H38.05a5.32,5.32,0,0,0,4-1.85H55.69l-1.48,9.57a3.41,3.41,0,0,1-3.39,2.91h-39a3.41,3.41,0,0,1-3.39-2.91l-1.48-9.57H20.53a5.34,5.34,0,0,0,4,1.85ZM1.24,163.24a.93.93,0,0,1,.93-.93H19.22v1.86h-17A.93.93,0,0,1,1.24,163.24ZM57.16,181.3a3.41,3.41,0,0,1-3.39,2.91H8.85a3.41,3.41,0,0,1-3.39-2.91L3,165.41H19.24a5.18,5.18,0,0,0,.49,1.92H6.2a.64.64,0,0,0-.47.21.61.61,0,0,0-.14.5l1.59,10.29a4.64,4.64,0,0,0,4.61,4h39a4.66,4.66,0,0,0,4.62-4L57,168a.69.69,0,0,0-.14-.5.65.65,0,0,0-.48-.21H42.89a5.18,5.18,0,0,0,.49-1.92H59.62Zm3.29-17.13H43.4v-1.86H60.45a.93.93,0,0,1,0,1.86Z"/><path class="cls-26" d="M25.89,166.21H36.73a.62.62,0,0,0,0-1.24H25.89a.62.62,0,1,0,0,1.24Z"/><path class="cls-26" d="M38.54,125.11h5.37a.62.62,0,0,0,0-1.24H38.54a.62.62,0,1,0,0,1.24Z"/><path class="cls-26" d="M25.89,136H36.73a.62.62,0,0,0,0-1.24H25.89a.62.62,0,1,0,0,1.24Z"/></g></g></svg>